<svg width="13" height="12" viewBox="0 0 13 12" fill="none" xmlns="http://www.w3.org/2000/svg">
<path d="M6.4 11.6L5.56667 10.85C4.45556 9.86111 3.53889 9.01389 2.81667 8.30833C2.09444 7.60278 1.525 6.975 1.10833 6.425C0.691667 5.875 0.402778 5.37222 0.241667 4.91667C0.0805556 4.46111 0 3.99444 0 3.51667C0 2.52778 0.338889 1.69444 1.01667 1.01667C1.69444 0.338889 2.52778 0 3.51667 0C4.06111 0 4.58889 0.116667 5.1 0.35C5.61111 0.583333 6.04444 0.911111 6.4 1.33333C6.75556 0.911111 7.18889 0.583333 7.7 0.35C8.21111 0.116667 8.73889 0 9.28333 0C10.2722 0 11.1056 0.338889 11.7833 1.01667C12.4611 1.69444 12.8 2.52778 12.8 3.51667C12.8 3.99444 12.7222 4.45556 12.5667 4.9C12.4111 5.34444 12.125 5.83889 11.7083 6.38333C11.2917 6.92778 10.7194 7.55833 9.99167 8.275C9.26389 8.99167 8.33333 9.86111 7.2 10.8833L6.4 11.6ZM6.4 9.98333C7.43333 9.06111 8.28333 8.275 8.95 7.625C9.61667 6.975 10.1472 6.40833 10.5417 5.925C10.9361 5.44167 11.2111 5.01111 11.3667 4.63333C11.5222 4.25556 11.6 3.88333 11.6 3.51667C11.6 2.86111 11.3778 2.31111 10.9333 1.86667C10.4889 1.42222 9.93889 1.2 9.28333 1.2C8.89444 1.2 8.53056 1.28056 8.19167 1.44167C7.85278 1.60278 7.56111 1.82778 7.31667 2.11667L6.73333 2.8H6.06667L5.48333 2.11667C5.23889 1.82778 4.94167 1.60278 4.59167 1.44167C4.24167 1.28056 3.88333 1.2 3.51667 1.2C2.86111 1.2 2.31111 1.42222 1.86667 1.86667C1.42222 2.31111 1.2 2.86111 1.2 3.51667C1.2 3.88333 1.27222 4.24722 1.41667 4.60833C1.56111 4.96944 1.825 5.38889 2.20833 5.86667C2.59167 6.34444 3.11944 6.91111 3.79167 7.56667C4.46389 8.22222 5.33333 9.02778 6.4 9.98333Z" fill="#DE6B50"/>
</svg>
